<?xml version="1.0" encoding="utf-8"?>
<!-- Generator: Adobe Illustrator 27.3.1, SVG Export Plug-In . SVG Version: 6.00 Build 0)  -->
<svg version="1.1" id="Layer_1" xmlns="http://www.w3.org/2000/svg" xmlns:xlink="http://www.w3.org/1999/xlink" x="0px" y="0px"
	 viewBox="0 0 595.28 841.89" style="enable-background:new 0 0 595.28 841.89;" xml:space="preserve">
<style type="text/css">
	.st0{fill:none;stroke:#FFFFFF;stroke-width:9;stroke-miterlimit:10;}
	.st1{fill:#FFFFFF;stroke:#000000;stroke-miterlimit:10;}
	.st2{fill:none;stroke:#FFFFFF;stroke-width:2;stroke-miterlimit:10;}
	.st3{fill:none;stroke:#FFFFFF;stroke-miterlimit:10;}
	.st4{fill:none;stroke:#58595B;stroke-width:2;stroke-miterlimit:10;}
	.st5{fill:none;stroke:#FFF200;stroke-width:2;stroke-miterlimit:10;}
	.st6{fill:#0E1B29;stroke:#FFFFFF;stroke-miterlimit:10;}
	.st7{fill:#BCBEC0;}
	.st8{fill:#FFFFFF;stroke:#FFFFFF;stroke-miterlimit:10;}
	.st9{fill:none;}
	.st10{fill:#FFF200;}
	.st11{fill:#F9ED32;stroke:#FFFFFF;stroke-miterlimit:10;}
	.st12{fill:#FFF200;stroke:#FFFFFF;stroke-miterlimit:10;}
</style>
<path class="st0" d="M303.21,559.67c-24.35-4.9-45.2,11.15-47.83,29.24c-3.07,21.08,19.27,40.22,39.29,42.03
	c11.07,1,25.24-2.96,33.6-14.01c11.93-15.76,1.93-32.57,11.96-46.29c13.3-18.2,43.36-11.92,44.99-11.57
	c6.13,1.32,23.94,5.15,32.46,22.54c0.59,1.21,9.15,19.31,1.14,34.11c-8.14,15.04-30.66,21.67-52.39,10.96"/>
<path class="st1" d="M-28.18,606.7"/>
<path class="st1" d="M-78.11,681.33"/>
<path class="st1" d="M203.58,659.78"/>
<path class="st1" d="M-35.01,626.67"/>
<path class="st1" d="M678.15,520.51"/>
<path class="st2" d="M196.24,255.88c-5.31-0.43-50.48-3.39-79.47,30.7c-22.1,25.98-26.35,63.55-11.24,97.52"/>
<path class="st3" d="M654.5,349.71"/>
<path class="st4" d="M659.76,315.55"/>
<path class="st5" d="M668.69,293.47"/>
<path class="st2" d="M272.96,440.1"/>
<g>
	<path class="st6" d="M416.15,356.14c-2.77,0.73-5.62-0.41-7.55-2.43c-1.13-0.08-2.25-0.18-3.37-0.31
		c-3.79-0.44-6.75-2.31-7.96-6.06c-1.17-3.62,0.86-7.33,3.8-9.33c1.4-0.95,2.77-1.93,4.15-2.9c0.06-0.34,0.16-0.66,0.26-0.98
		l-18.59-38.31L256,286.4l-44.85,66.22c1.44,3.5,0.59,8.04-2.55,10.32c-0.2,0.27-0.41,0.53-0.64,0.77c-1.2,1.23-2.27,2.57-3.39,3.87
		c1.28,4.76-1.27,10.71-7.65,10.71c-1.05,0-1.99-0.17-2.84-0.46l-11.66,17.22l57.29,118.05l130.88,9.41l73.59-108.64L416.15,356.14z
		"/>
	<path class="st3" d="M251.28,334.37"/>
	<path class="st7" d="M399.15,399.44c-1.01,39.43-36.14,77.79-74.5,82.09c-4.03,0.45-7,0.4-7.97,0.38
		c-33.03-0.8-82.45-30.36-82.45-82.47c0-45.54,36.91-82.45,82.45-82.45c40.98,0,71.72,32.33,80.03,62.48
		C397.79,383.4,399.37,390.48,399.15,399.44z"/>
	<path class="st8" d="M416.69,356c-2.94,1.04-6.03-0.15-8.08-2.29c-1.13-0.08-2.25-0.18-3.37-0.31c-3.79-0.44-6.75-2.31-7.96-6.06
		c-1.17-3.62,0.86-7.33,3.8-9.33c1.4-0.95,2.77-1.93,4.15-2.9c0.16-0.94,0.48-1.8,0.92-2.59c-7.64,0.31-16.53,0.7-26.74,1.18
		c-14.3,16.44-29.2,35.21-43.95,56.44c-20.62,29.68-36.77,58.14-49.44,83.75c-12.6-25.81-27.42-53.33-44.86-81.93
		c-9.56-15.67-19.18-30.46-28.74-44.42c-0.65,0.39-1.38,0.69-2.13,0.91c-0.07,0.67-0.25,1.32-0.48,1.96
		c3.07,3.52,2.66,9.75-1.22,12.55c-0.2,0.26-0.39,0.52-0.62,0.75c-1.2,1.23-2.27,2.57-3.39,3.87c1.28,4.76-1.27,10.71-7.65,10.71
		c-1.9,0-3.45-0.53-4.67-1.4c-0.04,0.18-0.06,0.36-0.1,0.54c-0.21,1.03-0.58,1.9-1.06,2.64c11.33,12.15,23.49,26.68,35.41,43.75
		c40.55,58.05,43.09,94.83,62.11,95.62c24.61,1.03,32.12-60.02,101.23-134.57c11.29-12.18,21.45-21.73,28.93-28.41
		c0.27-0.31,0.54-0.61,0.8-0.92c-0.14-0.18-0.27-0.38-0.4-0.56C418.38,355.34,417.56,355.68,416.69,356z"/>
	<path class="st7" d="M442.85,555.49"/>
	<path class="st9" d="M409.28,372.05c-4.5-1.66-12.71,8.98-13.03,8.67c-0.21-0.21,6.75-7.59,6.67-7.51
		c-12.92,11.98-27.2,26.99-41.26,45.44c-19.43,25.51-32.7,50.06-41.78,70.29c10.71-1.94,47.42-9.91,71.75-41.95
		c15.43-20.32,18.81-41,19.93-48.42C411.95,396,415.11,374.2,409.28,372.05z"/>
	<path class="st10" d="M345.63,509.77"/>
	<path class="st10" d="M349.39,504.27"/>
	<path class="st11" d="M411.6,443.8"/>
</g>
<path class="st12" d="M547.64,318.53"/>
<path class="st9" d="M555.7,286.99"/>
</svg>
